<svg width="51" height="48" viewBox="0 0 51 48" fill="none" xmlns="http://www.w3.org/2000/svg">
<path d="M23.5949 0C30.6122 0 36.8499 2.96287 41.0603 7.79703L38.5652 9.82426C26.09 -3.74257 3.32263 5.14604 3.32263 23.547C3.32263 41.6361 25.3103 50.8366 38.0974 38.0495C43.8672 32.1238 45.7385 23.2351 42.3078 15.4381L44.6469 12.6312C52.7558 28.2252 41.5281 47.25 23.5949 47.25C2.69887 47.25 -7.90509 21.6757 6.90927 6.86139C11.2756 2.65099 17.2013 0 23.5949 0ZM39.6568 10.9158C34.3548 15.4381 30.3004 19.6485 25.6221 25.2624L18.2929 14.9703C13.4588 14.5025 10.184 16.0619 9.24837 20.896L25.7781 33.8391L50.1048 3.11881C46.5182 5.45792 43.0875 8.10891 39.6568 10.9158Z" fill="#FE6806"/>
</svg>
